<?xml version="1.0" encoding="UTF-8" ?>
<!DOCTYPE svg PUBLIC "-//W3C//DTD SVG 1.1//EN" "http://www.w3.org/Graphics/SVG/1.1/DTD/svg11.dtd">
<svg width="400pt" height="400pt" viewBox="0 0 400 400" version="1.1" xmlns="http://www.w3.org/2000/svg">
<g id="#fdfdfdff">
<path fill="#fdfdfd" opacity="1.00" d=" M 232.51 60.66 C 235.00 59.86 237.67 60.28 240.12 61.04 C 285.16 75.23 322.37 111.66 337.78 156.27 C 339.57 160.88 341.40 166.65 338.08 171.04 C 334.65 176.76 325.75 177.59 321.19 172.82 C 318.26 169.96 317.32 165.82 315.94 162.11 C 302.51 124.28 270.68 93.61 232.43 81.50 C 226.36 80.26 222.74 72.97 225.27 67.37 C 226.46 64.13 229.24 61.67 232.51 60.66 Z" />
<path fill="#fdfdfd" opacity="1.00" d=" M 168.43 82.53 C 180.44 78.64 194.20 85.78 198.80 97.33 C 203.37 107.76 199.86 120.94 190.76 127.76 C 187.47 130.26 183.54 131.63 179.60 132.72 C 164.43 137.12 150.98 147.02 142.03 160.01 C 130.75 175.92 126.86 196.74 131.20 215.72 C 134.22 229.31 141.40 241.93 151.51 251.48 C 165.14 264.54 184.20 271.74 203.07 270.80 C 226.97 270.24 249.74 256.12 261.43 235.36 C 265.21 229.28 266.97 222.30 269.66 215.73 C 273.24 207.15 281.66 200.91 290.93 200.02 C 305.86 198.01 320.81 211.78 319.22 226.91 C 314.45 250.39 301.86 272.08 284.57 288.58 C 266.73 305.92 243.34 317.39 218.73 321.05 C 193.92 325.04 167.94 320.77 145.46 309.62 C 120.49 297.07 99.95 275.76 88.70 250.15 C 78.32 227.33 75.69 201.24 80.43 176.69 C 84.40 156.31 93.74 137.01 107.25 121.25 C 123.14 102.60 144.71 88.78 168.43 82.53 Z" />
<path fill="#fdfdfd" opacity="1.00" d=" M 225.43 96.61 C 228.21 95.73 231.19 96.22 233.86 97.24 C 265.47 109.11 291.34 135.40 302.52 167.27 C 304.17 171.24 302.88 175.92 299.95 178.94 C 295.96 182.81 288.88 183.03 284.78 179.21 C 282.49 177.19 281.46 174.23 280.35 171.49 C 271.06 148.11 252.10 128.77 228.84 119.16 C 225.08 117.64 220.70 116.03 219.06 111.95 C 216.24 106.21 219.31 98.59 225.43 96.61 Z" />
<path fill="#fdfdfd" opacity="1.00" d=" M 217.57 134.66 C 221.83 132.29 226.99 133.75 230.95 136.03 C 245.75 144.42 258.26 157.27 265.25 172.85 C 268.08 178.28 265.06 185.41 259.46 187.59 C 254.14 190.07 247.42 187.19 245.12 181.90 C 240.11 172.11 232.94 163.26 223.46 157.52 C 219.77 154.91 214.66 153.68 212.62 149.26 C 209.96 144.08 212.43 137.24 217.57 134.66 Z" />
</g>
<g id="#bb1f2aff">
<path fill="#bb1f2a" opacity="1.00" d=" M 189.40 16.45 C 205.37 15.77 221.43 16.55 237.08 19.92 C 275.06 27.68 310.34 47.92 336.31 76.69 C 359.55 102.35 375.46 134.67 381.18 168.84 C 385.81 196.26 384.32 224.76 376.56 251.48 C 368.81 277.81 355.16 302.38 336.77 322.77 C 317.40 344.39 292.78 361.31 265.65 371.65 C 243.24 380.38 219.03 384.30 195.01 383.62 C 143.77 382.70 93.58 358.59 60.49 319.51 C 31.69 286.16 15.60 242.07 16.36 198.00 C 16.51 163.14 27.17 128.43 46.31 99.32 C 59.16 79.64 75.81 62.49 95.12 49.10 C 122.70 29.76 155.78 18.34 189.40 16.45 M 232.51 60.66 C 229.24 61.67 226.46 64.13 225.27 67.37 C 222.74 72.97 226.36 80.26 232.43 81.50 C 270.68 93.61 302.51 124.28 315.94 162.11 C 317.32 165.82 318.26 169.96 321.19 172.82 C 325.75 177.59 334.65 176.76 338.08 171.04 C 341.40 166.65 339.57 160.88 337.78 156.27 C 322.37 111.66 285.16 75.23 240.12 61.04 C 237.67 60.28 235.00 59.86 232.51 60.66 M 168.43 82.53 C 144.71 88.78 123.14 102.60 107.25 121.25 C 93.74 137.01 84.40 156.31 80.43 176.69 C 75.69 201.24 78.32 227.33 88.70 250.15 C 99.95 275.76 120.49 297.07 145.46 309.62 C 167.94 320.77 193.92 325.04 218.73 321.05 C 243.34 317.39 266.73 305.92 284.57 288.58 C 301.86 272.08 314.45 250.39 319.22 226.91 C 320.81 211.78 305.86 198.01 290.93 200.02 C 281.66 200.91 273.24 207.15 269.66 215.73 C 266.97 222.30 265.21 229.28 261.43 235.36 C 249.74 256.12 226.97 270.24 203.07 270.80 C 184.20 271.74 165.14 264.54 151.51 251.48 C 141.40 241.93 134.22 229.31 131.20 215.72 C 126.86 196.74 130.75 175.92 142.03 160.01 C 150.98 147.02 164.43 137.12 179.60 132.72 C 183.54 131.63 187.47 130.26 190.76 127.76 C 199.86 120.94 203.37 107.76 198.80 97.33 C 194.20 85.78 180.44 78.64 168.43 82.53 M 225.43 96.61 C 219.31 98.59 216.24 106.21 219.06 111.95 C 220.70 116.03 225.08 117.64 228.84 119.16 C 252.10 128.77 271.06 148.11 280.35 171.49 C 281.46 174.23 282.49 177.19 284.78 179.21 C 288.88 183.03 295.96 182.81 299.95 178.94 C 302.88 175.92 304.17 171.24 302.52 167.27 C 291.34 135.40 265.47 109.11 233.86 97.24 C 231.19 96.22 228.21 95.73 225.43 96.61 M 217.57 134.66 C 212.43 137.24 209.96 144.08 212.62 149.26 C 214.66 153.68 219.77 154.91 223.46 157.52 C 232.94 163.26 240.11 172.11 245.12 181.90 C 247.42 187.19 254.14 190.07 259.46 187.59 C 265.06 185.41 268.08 178.28 265.25 172.85 C 258.26 157.27 245.75 144.42 230.95 136.03 C 226.99 133.75 221.83 132.29 217.57 134.66 Z" />
</g>
</svg>
